{"scene":0,"asset":{"generator":"ImageToStl.com","version":"2.0"},"scenes":[{"name":"Scene","nodes":[0]}],"nodes":[{"name":"Node0","children":[1,2,3,4,5,6,7]},{"name":"Node1","mesh":0},{"name":"Node2","mesh":1},{"name":"Node3","mesh":2},{"name":"Node4","mesh":3},{"name":"Node5","mesh":4},{"name":"Node6","mesh":5},{"name":"Node7","mesh":6}],"materials":[{"name":"Material.001","pbrMetallicRoughness":{"baseColorFactor":[0.8,0.8,0.8,1.0],"metallicFactor":0.5,"roughnessFactor":0.75,"baseColorTexture":{"index":0}},"emissiveFactor":[0.0,0.0,0.0],"doubleSided":true},{"name":"Material.003","pbrMetallicRoughness":{"baseColorFactor":[0.8,0.8,0.8,1.0],"metallicFactor":0.5,"roughnessFactor":0.75},"emissiveFactor":[0.0,0.0,0.0],"doubleSided":true},{"name":"Material.006","pbrMetallicRoughness":{"baseColorFactor":[0.8,0.8,0.8,1.0],"metallicFactor":0.5,"roughnessFactor":0.75},"emissiveFactor":[0.0,0.0,0.0],"doubleSided":true},{"name":"Material.004","pbrMetallicRoughness":{"baseColorFactor":[0.8,0.8,0.8,1.0],"metallicFactor":0.5,"roughnessFactor":0.75},"emissiveFactor":[0.0,0.0,0.0],"doubleSided":true},{"name":"Material.005","pbrMetallicRoughness":{"baseColorFactor":[0.8,0.8,0.8,1.0],"metallicFactor":0.5,"roughnessFactor":0.75},"emissiveFactor":[0.0,0.0,0.0],"doubleSided":true},{"name":"Material.008","pbrMetallicRoughness":{"baseColorFactor":[0.8,0.8,0.8,1.0],"metallicFactor":0.5,"roughnessFactor":0.75},"emissiveFactor":[0.0,0.0,0.0],"doubleSided":true},{"name":"x1","pbrMetallicRoughness":{"baseColorFactor":[0.0,0.0,0.0,1.0],"metallicFactor":0.0,"roughnessFactor":1.0},"doubleSided":true}],"images":[{"bufferView":0,"name":"","mimeType":"image/png"}],"textures":[{"sampler":0,"source":0}],"samplers":[{"magFilter":9729,"minFilter":9987}],"meshes":[{"name":"Mesh0","primitives":[{"indices":3,"material":0,"attributes":{"POSITION":0,"NORMAL":1,"TEXCOORD_0":2}}]},{"name":"Mesh0","primitives":[{"indices":7,"material":1,"attributes":{"POSITION":4,"NORMAL":5,"TEXCOORD_0":6}}]},{"name":"Mesh0","primitives":[{"indices":11,"material":2,"attributes":{"POSITION":8,"NORMAL":9,"TEXCOORD_0":10}}]},{"name":"Mesh0","primitives":[{"indices":15,"material":3,"attributes":{"POSITION":12,"NORMAL":13,"TEXCOORD_0":14}}]},{"name":"Mesh0","primitives":[{"indices":19,"material":4,"attributes":{"POSITION":16,"NORMAL":17,"TEXCOORD_0":18}}]},{"name":"Mesh0","primitives":[{"indices":23,"material":5,"attributes":{"POSITION":20,"NORMAL":21,"TEXCOORD_0":22}}]},{"name":"Mesh0","primitives":[{"indices":27,"material":6,"attributes":{"POSITION":24,"NORMAL":25,"TEXCOORD_0":26}}]}],"accessors":[{"bufferView":1,"componentType":5126,"count":20,"type":"VEC3","min":[-0.54950047,-0.28249764,0.7251623],"max":[0.45049953,0.11250234,0.7451623]},{"bufferView":2,"componentType":5126,"count":20,"type":"VEC3"},{"bufferView":3,"componentType":5126,"count":20,"type":"VEC2"},{"bufferView":4,"componentType":5123,"count":108,"type":"SCALAR"},{"bufferView":5,"componentType":5126,"count":14,"type":"VEC3","min":[0.42818972,-0.26920038,-0.004411489],"max":[0.4481897,0.1107996,0.72558844]},{"bufferView":6,"componentType":5126,"count":14,"type":"VEC3"},{"bufferView":7,"componentType":5126,"count":14,"type":"VEC2"},{"bufferView":8,"componentType":5123,"count":108,"type":"SCALAR"},{"bufferView":9,"componentType":5126,"count":14,"type":"VEC3","min":[-0.5494081,-0.26920038,-0.004411489],"max":[-0.5294081,0.1107996,0.72558844]},{"bufferView":10,"componentType":5126,"count":14,"type":"VEC3"},{"bufferView":11,"componentType":5126,"count":14,"type":"VEC2"},{"bufferView":12,"componentType":5123,"count":108,"type":"SCALAR"},{"bufferView":13,"componentType":5126,"count":14,"type":"VEC3","min":[0.16310547,-0.2692021,-0.0046746675],"max":[0.44810545,0.11079787,0.015325332]},{"bufferView":14,"componentType":5126,"count":14,"type":"VEC3"},{"bufferView":15,"componentType":5126,"count":14,"type":"VEC2"},{"bufferView":16,"componentType":5123,"count":108,"type":"SCALAR"},{"bufferView":17,"componentType":5126,"count":14,"type":"VEC3","min":[0.16304775,-0.26920038,-0.004411489],"max":[0.18304776,0.1107996,0.72558844]},{"bufferView":18,"componentType":5126,"count":14,"type":"VEC3"},{"bufferView":19,"componentType":5126,"count":14,"type":"VEC2"},{"bufferView":20,"componentType":5123,"count":108,"type":"SCALAR"},{"bufferView":21,"componentType":5126,"count":14,"type":"VEC3","min":[-0.5312737,0.091332324,0.52574944],"max":[0.16872627,0.111332335,0.7257494]},{"bufferView":22,"componentType":5126,"count":14,"type":"VEC3"},{"bufferView":23,"componentType":5126,"count":14,"type":"VEC2"},{"bufferView":24,"componentType":5123,"count":108,"type":"SCALAR"},{"bufferView":25,"componentType":5126,"count":14,"type":"VEC3","min":[0.16310547,-0.2692021,0.56447697],"max":[0.44810545,0.11079787,0.58447695]},{"bufferView":26,"componentType":5126,"count":14,"type":"VEC3"},{"bufferView":27,"componentType":5126,"count":14,"type":"VEC2"},{"bufferView":28,"componentType":5123,"count":108,"type":"SCALAR"}],"bufferViews":[{"buffer":0,"byteLength":2838157,"byteOffset":0},{"target":34962,"buffer":0,"byteLength":240,"byteOffset":2838160},{"target":34962,"buffer":0,"byteLength":240,"byteOffset":2838400},{"target":34962,"buffer":0,"byteLength":160,"byteOffset":2838640},{"target":34963,"buffer":0,"byteLength":216,"byteOffset":2838800},{"target":34962,"buffer":0,"byteLength":168,"byteOffset":2839016},{"target":34962,"buffer":0,"byteLength":168,"byteOffset":2839184},{"target":34962,"buffer":0,"byteLength":112,"byteOffset":2839352},{"target":34963,"buffer":0,"byteLength":216,"byteOffset":2839464},{"target":34962,"buffer":0,"byteLength":168,"byteOffset":2839680},{"target":34962,"buffer":0,"byteLength":168,"byteOffset":2839848},{"target":34962,"buffer":0,"byteLength":112,"byteOffset":2840016},{"target":34963,"buffer":0,"byteLength":216,"byteOffset":2840128},{"target":34962,"buffer":0,"byteLength":168,"byteOffset":2840344},{"target":34962,"buffer":0,"byteLength":168,"byteOffset":2840512},{"target":34962,"buffer":0,"byteLength":112,"byteOffset":2840680},{"target":34963,"buffer":0,"byteLength":216,"byteOffset":2840792},{"target":34962,"buffer":0,"byteLength":168,"byteOffset":2841008},{"target":34962,"buffer":0,"byteLength":168,"byteOffset":2841176},{"target":34962,"buffer":0,"byteLength":112,"byteOffset":2841344},{"target":34963,"buffer":0,"byteLength":216,"byteOffset":2841456},{"target":34962,"buffer":0,"byteLength":168,"byteOffset":2841672},{"target":34962,"buffer":0,"byteLength":168,"byteOffset":2841840},{"target":34962,"buffer":0,"byteLength":112,"byteOffset":2842008},{"target":34963,"buffer":0,"byteLength":216,"byteOffset":2842120},{"target":34962,"buffer":0,"byteLength":168,"byteOffset":2842336},{"target":34962,"buffer":0,"byteLength":168,"byteOffset":2842504},{"target":34962,"buffer":0,"byteLength":112,"byteOffset":2842672},{"target":34963,"buffer":0,"byteLength":216,"byteOffset":2842784}],"buffers":[{"byteLength":2843000,"uri":"data:application/octet-stream;base64,"}]}