{
	"asset":{
		"generator":"Khronos glTF Blender I/O v4.2.57",
		"version":"2.0"
	},
	"scene":0,
	"scenes":[
		{
			"name":"Scene",
			"nodes":[
				0,
				1,
				2,
				3,
				4,
				5,
				6
			]
		}
	],
	"nodes":[
		{
			"mesh":0,
			"name":"Cube",
			"translation":[
				-0.049500465393066406,
				0.7351623177528381,
				0.08499765396118164
			]
		},
		{
			"mesh":1,
			"name":"Cube.001",
			"scale":[
				0.009999999776482582,
				0.3649999797344208,
				0.1899999976158142
			],
			"translation":[
				0.43818971514701843,
				0.3605884909629822,
				0.0792003944516182
			]
		},
		{
			"mesh":2,
			"name":"Cube.002",
			"scale":[
				0.009999999776482582,
				0.3649999797344208,
				0.1899999976158142
			],
			"translation":[
				-0.5394080877304077,
				0.3605884909629822,
				0.0792003944516182
			]
		},
		{
			"mesh":3,
			"name":"Cube.003",
			"scale":[
				0.14249999821186066,
				0.009999999776482582,
				0.1899999976158142
			],
			"translation":[
				0.3056054711341858,
				0.005325332283973694,
				0.07920213043689728
			]
		},
		{
			"mesh":4,
			"name":"Cube.004",
			"scale":[
				0.009999999776482582,
				0.3649999797344208,
				0.1899999976158142
			],
			"translation":[
				0.1730477511882782,
				0.3605884909629822,
				0.0792003944516182
			]
		},
		{
			"mesh":5,
			"name":"Cube.005",
			"rotation":[
				0.7071068286895752,
				0,
				0,
				0.7071068286895752
			],
			"scale":[
				0.3499999940395355,
				0.009999999776482582,
				0.09999999403953552
			],
			"translation":[
				-0.18127372860908508,
				0.625749409198761,
				-0.10133232921361923
			]
		},
		{
			"mesh":6,
			"name":"Cube.006",
			"scale":[
				0.14249999821186066,
				0.009999999776482582,
				0.1899999976158142
			],
			"translation":[
				0.3056054711341858,
				0.574476957321167,
				0.07920213043689728
			]
		}
	],
	"materials":[
		{
			"doubleSided":true,
			"name":"Material.001",
			"pbrMetallicRoughness":{
				"baseColorTexture":{
					"index":0
				},
				"metallicFactor":0,
				"metallicRoughnessTexture":{
					"index":1
				}
			}
		},
		{
			"doubleSided":true,
			"name":"Material.003",
			"pbrMetallicRoughness":{
				"baseColorTexture":{
					"index":2
				},
				"metallicFactor":0,
				"roughnessFactor":0.5
			}
		},
		{
			"doubleSided":true,
			"name":"Material.006",
			"pbrMetallicRoughness":{
				"baseColorTexture":{
					"index":3
				},
				"metallicFactor":0,
				"roughnessFactor":0.5
			}
		},
		{
			"doubleSided":true,
			"name":"Material.004",
			"pbrMetallicRoughness":{
				"baseColorTexture":{
					"index":4
				},
				"metallicFactor":0,
				"roughnessFactor":0.5
			}
		},
		{
			"doubleSided":true,
			"name":"Material.005",
			"pbrMetallicRoughness":{
				"baseColorTexture":{
					"index":5
				},
				"metallicFactor":0,
				"roughnessFactor":0.5
			}
		},
		{
			"doubleSided":true,
			"name":"Material.008",
			"pbrMetallicRoughness":{
				"baseColorTexture":{
					"index":6
				},
				"metallicFactor":0,
				"roughnessFactor":0.5
			}
		},
		{
			"doubleSided":true,
			"name":"Material.007",
			"pbrMetallicRoughness":{
				"baseColorTexture":{
					"index":7
				},
				"metallicFactor":0,
				"roughnessFactor":0.5
			}
		}
	],
	"meshes":[
		{
			"name":"Cube.001",
			"primitives":[
				{
					"attributes":{
						"POSITION":0,
						"NORMAL":1,
						"TEXCOORD_0":2
					},
					"indices":3,
					"material":0
				}
			]
		},
		{
			"name":"Cube.002",
			"primitives":[
				{
					"attributes":{
						"POSITION":4,
						"NORMAL":5,
						"TEXCOORD_0":6
					},
					"indices":7,
					"material":1
				}
			]
		},
		{
			"name":"Cube.003",
			"primitives":[
				{
					"attributes":{
						"POSITION":8,
						"NORMAL":9,
						"TEXCOORD_0":10
					},
					"indices":7,
					"material":2
				}
			]
		},
		{
			"name":"Cube.004",
			"primitives":[
				{
					"attributes":{
						"POSITION":11,
						"NORMAL":12,
						"TEXCOORD_0":13
					},
					"indices":7,
					"material":3
				}
			]
		},
		{
			"name":"Cube.005",
			"primitives":[
				{
					"attributes":{
						"POSITION":14,
						"NORMAL":15,
						"TEXCOORD_0":16
					},
					"indices":7,
					"material":4
				}
			]
		},
		{
			"name":"Cube.006",
			"primitives":[
				{
					"attributes":{
						"POSITION":17,
						"NORMAL":18,
						"TEXCOORD_0":19
					},
					"indices":7,
					"material":5
				}
			]
		},
		{
			"name":"Cube.007",
			"primitives":[
				{
					"attributes":{
						"POSITION":20,
						"NORMAL":21,
						"TEXCOORD_0":22
					},
					"indices":7,
					"material":6
				}
			]
		}
	],
	"textures":[
		{
			"sampler":0,
			"source":0
		},
		{
			"sampler":0,
			"source":1
		},
		{
			"sampler":0,
			"source":0
		},
		{
			"sampler":0,
			"source":0
		},
		{
			"sampler":0,
			"source":0
		},
		{
			"sampler":0,
			"source":0
		},
		{
			"sampler":0,
			"source":0
		},
		{
			"sampler":0,
			"source":0
		}
	],
	"images":[
		{
			"mimeType":"image/jpeg",
			"name":"20241202_214515",
			"uri":"20241202_214515.jpg"
		},
		{
			"mimeType":"image/jpeg",
			"name":"Poliigon_BrickWallReclaimed_8320_Roughness",
			"uri":"Poliigon_BrickWallReclaimed_8320_Roughness.jpg"
		}
	],
	"accessors":[
		{
			"bufferView":0,
			"componentType":5126,
			"count":20,
			"max":[
				0.5,
				0.009999999776482582,
				0.19749999046325684
			],
			"min":[
				-0.5,
				-0.009999999776482582,
				-0.19749999046325684
			],
			"type":"VEC3"
		},
		{
			"bufferView":1,
			"componentType":5126,
			"count":20,
			"type":"VEC3"
		},
		{
			"bufferView":2,
			"componentType":5126,
			"count":20,
			"type":"VEC2"
		},
		{
			"bufferView":3,
			"componentType":5123,
			"count":36,
			"type":"SCALAR"
		},
		{
			"bufferView":4,
			"componentType":5126,
			"count":24,
			"max":[
				1,
				1,
				1
			],
			"min":[
				-1,
				-1,
				-1
			],
			"type":"VEC3"
		},
		{
			"bufferView":5,
			"componentType":5126,
			"count":24,
			"type":"VEC3"
		},
		{
			"bufferView":6,
			"componentType":5126,
			"count":24,
			"type":"VEC2"
		},
		{
			"bufferView":7,
			"componentType":5123,
			"count":36,
			"type":"SCALAR"
		},
		{
			"bufferView":8,
			"componentType":5126,
			"count":24,
			"max":[
				1,
				1,
				1
			],
			"min":[
				-1,
				-1,
				-1
			],
			"type":"VEC3"
		},
		{
			"bufferView":9,
			"componentType":5126,
			"count":24,
			"type":"VEC3"
		},
		{
			"bufferView":10,
			"componentType":5126,
			"count":24,
			"type":"VEC2"
		},
		{
			"bufferView":11,
			"componentType":5126,
			"count":24,
			"max":[
				1,
				1,
				1
			],
			"min":[
				-1,
				-1,
				-1
			],
			"type":"VEC3"
		},
		{
			"bufferView":12,
			"componentType":5126,
			"count":24,
			"type":"VEC3"
		},
		{
			"bufferView":13,
			"componentType":5126,
			"count":24,
			"type":"VEC2"
		},
		{
			"bufferView":14,
			"componentType":5126,
			"count":24,
			"max":[
				1,
				1,
				1
			],
			"min":[
				-1,
				-1,
				-1
			],
			"type":"VEC3"
		},
		{
			"bufferView":15,
			"componentType":5126,
			"count":24,
			"type":"VEC3"
		},
		{
			"bufferView":16,
			"componentType":5126,
			"count":24,
			"type":"VEC2"
		},
		{
			"bufferView":17,
			"componentType":5126,
			"count":24,
			"max":[
				1,
				1,
				1
			],
			"min":[
				-1,
				-1,
				-1
			],
			"type":"VEC3"
		},
		{
			"bufferView":18,
			"componentType":5126,
			"count":24,
			"type":"VEC3"
		},
		{
			"bufferView":19,
			"componentType":5126,
			"count":24,
			"type":"VEC2"
		},
		{
			"bufferView":20,
			"componentType":5126,
			"count":24,
			"max":[
				1,
				1,
				1
			],
			"min":[
				-1,
				-1,
				-1
			],
			"type":"VEC3"
		},
		{
			"bufferView":21,
			"componentType":5126,
			"count":24,
			"type":"VEC3"
		},
		{
			"bufferView":22,
			"componentType":5126,
			"count":24,
			"type":"VEC2"
		}
	],
	"bufferViews":[
		{
			"buffer":0,
			"byteLength":240,
			"byteOffset":0,
			"target":34962
		},
		{
			"buffer":0,
			"byteLength":240,
			"byteOffset":240,
			"target":34962
		},
		{
			"buffer":0,
			"byteLength":160,
			"byteOffset":480,
			"target":34962
		},
		{
			"buffer":0,
			"byteLength":72,
			"byteOffset":640,
			"target":34963
		},
		{
			"buffer":0,
			"byteLength":288,
			"byteOffset":712,
			"target":34962
		},
		{
			"buffer":0,
			"byteLength":288,
			"byteOffset":1000,
			"target":34962
		},
		{
			"buffer":0,
			"byteLength":192,
			"byteOffset":1288,
			"target":34962
		},
		{
			"buffer":0,
			"byteLength":72,
			"byteOffset":1480,
			"target":34963
		},
		{
			"buffer":0,
			"byteLength":288,
			"byteOffset":1552,
			"target":34962
		},
		{
			"buffer":0,
			"byteLength":288,
			"byteOffset":1840,
			"target":34962
		},
		{
			"buffer":0,
			"byteLength":192,
			"byteOffset":2128,
			"target":34962
		},
		{
			"buffer":0,
			"byteLength":288,
			"byteOffset":2320,
			"target":34962
		},
		{
			"buffer":0,
			"byteLength":288,
			"byteOffset":2608,
			"target":34962
		},
		{
			"buffer":0,
			"byteLength":192,
			"byteOffset":2896,
			"target":34962
		},
		{
			"buffer":0,
			"byteLength":288,
			"byteOffset":3088,
			"target":34962
		},
		{
			"buffer":0,
			"byteLength":288,
			"byteOffset":3376,
			"target":34962
		},
		{
			"buffer":0,
			"byteLength":192,
			"byteOffset":3664,
			"target":34962
		},
		{
			"buffer":0,
			"byteLength":288,
			"byteOffset":3856,
			"target":34962
		},
		{
			"buffer":0,
			"byteLength":288,
			"byteOffset":4144,
			"target":34962
		},
		{
			"buffer":0,
			"byteLength":192,
			"byteOffset":4432,
			"target":34962
		},
		{
			"buffer":0,
			"byteLength":288,
			"byteOffset":4624,
			"target":34962
		},
		{
			"buffer":0,
			"byteLength":288,
			"byteOffset":4912,
			"target":34962
		},
		{
			"buffer":0,
			"byteLength":192,
			"byteOffset":5200,
			"target":34962
		}
	],
	"samplers":[
		{
			"magFilter":9729,
			"minFilter":9987
		}
	],
	"buffers":[
		{
			"byteLength":5392,
			"uri":"Wooden%20Study%20Table.bin"
		}
	]
}
