{
	"asset":{
		"generator":"Khronos glTF Blender I/O v4.0.44",
		"version":"2.0"
	},
	"extensionsUsed":[
		"KHR_materials_specular",
		"KHR_materials_ior"
	],
	"scene":0,
	"scenes":[
		{
			"name":"Scene",
			"nodes":[
				8
			]
		}
	],
	"nodes":[
		{
			"mesh":0,
			"name":"Chair_Slat1",
			"rotation":[
				-0.040599431842565536,
				0.006512943655252457,
				-0.07760537415742874,
				0.9961358904838562
			],
			"scale":[
				0.08820752054452896,
				0.08820751309394836,
				0.042376287281513214
			],
			"translation":[
				-0.9998376369476318,
				-0.04901832342147827,
				1.1714929342269897
			]
		},
		{
			"mesh":1,
			"name":"Chair_Slat2",
			"rotation":[
				0.03019876964390278,
				0.0005723809590563178,
				-0.07741618901491165,
				0.9965412616729736
			],
			"scale":[
				0.08820752054452896,
				0.08820750564336777,
				0.04237629473209381
			],
			"translation":[
				-1.0072377920150757,
				-0.09630562365055084,
				-0.734936535358429
			]
		},
		{
			"mesh":2,
			"name":"ChairBase",
			"rotation":[
				0,
				0,
				-0.08058836311101913,
				0.9967475533485413
			],
			"scale":[
				1.2852412462234497,
				1.0138062238693237,
				1.0138063430786133
			],
			"translation":[
				-0.8952240347862244,
				0.5940550565719604,
				0.5768750309944153
			]
		},
		{
			"mesh":3,
			"name":"ChairBase_Screw1",
			"rotation":[
				-0.019842376932501793,
				0.0014558990951627493,
				-0.253833532333374,
				0.9670432806015015
			],
			"scale":[
				0.011730439960956573,
				0.011730430647730827,
				0.0117304353043437
			],
			"translation":[
				-1.807294249534607,
				0.7613899111747742,
				-0.027630962431430817
			]
		},
		{
			"mesh":4,
			"name":"ChairBase_Screw2",
			"rotation":[
				-0.02969181165099144,
				0.003853083588182926,
				-0.2628074288368225,
				0.9643836617469788
			],
			"scale":[
				0.012141409330070019,
				0.012141406536102295,
				0.012141409330070019
			],
			"translation":[
				-1.781925916671753,
				0.8140671849250793,
				1.029154658317566
			]
		},
		{
			"mesh":5,
			"name":"ChairSoborg",
			"rotation":[
				0.6095674633979797,
				-0.04928434267640114,
				-0.06376156955957413,
				0.7886273264884949
			],
			"translation":[
				-0.7252761721611023,
				1.6381758451461792,
				-0.70134037733078
			]
		},
		{
			"mesh":6,
			"name":"ChairSoborg_Screw1",
			"rotation":[
				0.5896791219711304,
				-0.009466544725000858,
				-0.2372121661901474,
				0.7719582319259644
			],
			"scale":[
				0.0117304353043437,
				0.011730432510375977,
				0.011730430647730827
			],
			"translation":[
				-1.3685200214385986,
				2.047415018081665,
				-0.7852786183357239
			]
		},
		{
			"mesh":7,
			"name":"ChairSoborg_Screw2",
			"rotation":[
				0.580541729927063,
				0.023534948006272316,
				-0.27670255303382874,
				0.7654104232788086
			],
			"scale":[
				0.011730434373021126,
				0.011730436235666275,
				0.011730428785085678
			],
			"translation":[
				-1.5485050678253174,
				1.4047375917434692,
				-0.5746245980262756
			]
		},
		{
			"children":[
				0,
				1,
				2,
				3,
				4,
				5,
				6,
				7
			],
			"mesh":8,
			"name":"Chair_Leg",
			"rotation":[
				-0.009375179186463356,
				-0.11595583707094193,
				0.08004114031791687,
				0.9899796843528748
			],
			"scale":[
				0.18586774170398712,
				0.18586772680282593,
				0.18586772680282593
			],
			"translation":[
				0.18735454976558685,
				0.34795165061950684,
				-0.03786260634660721
			]
		}
	],
	"materials":[
		{
			"doubleSided":true,
			"name":"ChairSoborg_Oak",
			"normalTexture":{
				"index":0,
				"scale":1.7999999523162842
			},
			"pbrMetallicRoughness":{
				"baseColorTexture":{
					"index":1
				},
				"metallicFactor":0,
				"metallicRoughnessTexture":{
					"index":2
				}
			}
		},
		{
			"doubleSided":true,
			"name":"ChairSoborg_Screw",
			"pbrMetallicRoughness":{
				"baseColorFactor":[
					0.800000011920929,
					0.800000011920929,
					0.800000011920929,
					1
				],
				"roughnessFactor":0.15090906620025635
			}
		},
		{
			"doubleSided":true,
			"extensions":{
				"KHR_materials_specular":{
					"specularFactor":0
				},
				"KHR_materials_ior":{
					"ior":1.4500000476837158
				}
			},
			"name":"ChairSoborg_ScrewHole",
			"pbrMetallicRoughness":{
				"baseColorFactor":[
					0,
					0,
					0,
					1
				],
				"metallicFactor":0,
				"roughnessFactor":0.5
			}
		}
	],
	"meshes":[
		{
			"name":"Cube.003",
			"primitives":[
				{
					"attributes":{
						"POSITION":0,
						"NORMAL":1,
						"TEXCOORD_0":2
					},
					"indices":3,
					"material":0
				}
			]
		},
		{
			"name":"Cube.004",
			"primitives":[
				{
					"attributes":{
						"POSITION":4,
						"NORMAL":5,
						"TEXCOORD_0":6
					},
					"indices":7,
					"material":0
				}
			]
		},
		{
			"name":"Plane",
			"primitives":[
				{
					"attributes":{
						"POSITION":8,
						"NORMAL":9,
						"TEXCOORD_0":10
					},
					"indices":11,
					"material":0
				}
			]
		},
		{
			"name":"Circle.002",
			"primitives":[
				{
					"attributes":{
						"POSITION":12,
						"NORMAL":13
					},
					"indices":14,
					"material":1
				},
				{
					"attributes":{
						"POSITION":15,
						"NORMAL":16
					},
					"indices":17,
					"material":2
				}
			]
		},
		{
			"name":"Circle.001",
			"primitives":[
				{
					"attributes":{
						"POSITION":18,
						"NORMAL":19
					},
					"indices":20,
					"material":1
				},
				{
					"attributes":{
						"POSITION":21,
						"NORMAL":22
					},
					"indices":17,
					"material":2
				}
			]
		},
		{
			"name":"Plane.002",
			"primitives":[
				{
					"attributes":{
						"POSITION":23,
						"NORMAL":24,
						"TEXCOORD_0":25
					},
					"indices":26,
					"material":0
				}
			]
		},
		{
			"name":"Circle.006",
			"primitives":[
				{
					"attributes":{
						"POSITION":27,
						"NORMAL":28
					},
					"indices":29,
					"material":1
				},
				{
					"attributes":{
						"POSITION":30,
						"NORMAL":31
					},
					"indices":17,
					"material":2
				}
			]
		},
		{
			"name":"Circle.003",
			"primitives":[
				{
					"attributes":{
						"POSITION":32,
						"NORMAL":33
					},
					"indices":34,
					"material":1
				},
				{
					"attributes":{
						"POSITION":35,
						"NORMAL":36
					},
					"indices":17,
					"material":2
				}
			]
		},
		{
			"name":"Cube",
			"primitives":[
				{
					"attributes":{
						"POSITION":37,
						"NORMAL":38,
						"TEXCOORD_0":39
					},
					"indices":40,
					"material":0
				}
			]
		}
	],
	"textures":[
		{
			"sampler":0,
			"source":0
		},
		{
			"sampler":0,
			"source":1
		},
		{
			"sampler":0,
			"source":2
		}
	],
	"images":[
		{
			"mimeType":"image/png",
			"name":"VeneerWhiteOakRandomMatched001_DISP16_2K_METALNESS",
			"uri":"VeneerWhiteOakRandomMatched001_DISP16_2K_METALNESS.png"
		},
		{
			"mimeType":"image/png",
			"name":"VeneerWhiteOakRandomMatched001_COL_2K_METALNESS",
			"uri":"VeneerWhiteOakRandomMatched001_COL_2K_METALNESS.png"
		},
		{
			"mimeType":"image/png",
			"name":"VeneerWhiteOakRandomMatched001_ROUGHNESS_2K_METALNESS",
			"uri":"VeneerWhiteOakRandomMatched001_ROUGHNESS_2K_METALNESS.png"
		}
	],
	"accessors":[
		{
			"bufferView":0,
			"componentType":5126,
			"count":435,
			"max":[
				11.078572273254395,
				1.6613249778747559,
				0.9999992847442627
			],
			"min":[
				-11.078572273254395,
				-1.823978304862976,
				-0.9999990463256836
			],
			"type":"VEC3"
		},
		{
			"bufferView":1,
			"componentType":5126,
			"count":435,
			"type":"VEC3"
		},
		{
			"bufferView":2,
			"componentType":5126,
			"count":435,
			"type":"VEC2"
		},
		{
			"bufferView":3,
			"componentType":5123,
			"count":2112,
			"type":"SCALAR"
		},
		{
			"bufferView":4,
			"componentType":5126,
			"count":454,
			"max":[
				11.237136840820312,
				1.6613249778747559,
				0.9999991655349731
			],
			"min":[
				-11.237136840820312,
				-1.823978304862976,
				-0.9999989867210388
			],
			"type":"VEC3"
		},
		{
			"bufferView":5,
			"componentType":5126,
			"count":454,
			"type":"VEC3"
		},
		{
			"bufferView":6,
			"componentType":5126,
			"count":454,
			"type":"VEC2"
		},
		{
			"bufferView":7,
			"componentType":5123,
			"count":2112,
			"type":"SCALAR"
		},
		{
			"bufferView":8,
			"componentType":5126,
			"count":4498,
			"max":[
				1.0091696977615356,
				0.16736513376235962,
				0.8810333609580994
			],
			"min":[
				-1.0091696977615356,
				-0.15537519752979279,
				-1.1695183515548706
			],
			"type":"VEC3"
		},
		{
			"bufferView":9,
			"componentType":5126,
			"count":4498,
			"type":"VEC3"
		},
		{
			"bufferView":10,
			"componentType":5126,
			"count":4498,
			"type":"VEC2"
		},
		{
			"bufferView":11,
			"componentType":5123,
			"count":24192,
			"type":"SCALAR"
		},
		{
			"bufferView":12,
			"componentType":5126,
			"count":312,
			"max":[
				150.31866455078125,
				56.13161087036133,
				3.5769472122192383
			],
			"min":[
				-2.5080525875091553,
				-0.0387721061706543,
				-2.521867513656616
			],
			"type":"VEC3"
		},
		{
			"bufferView":13,
			"componentType":5126,
			"count":312,
			"type":"VEC3"
		},
		{
			"bufferView":14,
			"componentType":5123,
			"count":576,
			"type":"SCALAR"
		},
		{
			"bufferView":15,
			"componentType":5126,
			"count":12,
			"max":[
				149.02391052246094,
				55.07014846801758,
				2.0548880100250244
			],
			"min":[
				-0.8660253286361694,
				0.03230930119752884,
				-1.0000003576278687
			],
			"type":"VEC3"
		},
		{
			"bufferView":16,
			"componentType":5126,
			"count":12,
			"type":"VEC3"
		},
		{
			"bufferView":17,
			"componentType":5123,
			"count":24,
			"type":"SCALAR"
		},
		{
			"bufferView":18,
			"componentType":5126,
			"count":312,
			"max":[
				141.68809509277344,
				56.00016784667969,
				4.6006975173950195
			],
			"min":[
				-2.5080525875091553,
				-0.0387721061706543,
				-2.521867513656616
			],
			"type":"VEC3"
		},
		{
			"bufferView":19,
			"componentType":5126,
			"count":312,
			"type":"VEC3"
		},
		{
			"bufferView":20,
			"componentType":5123,
			"count":576,
			"type":"SCALAR"
		},
		{
			"bufferView":21,
			"componentType":5126,
			"count":12,
			"max":[
				140.4349822998047,
				54.89470291137695,
				3.0787014961242676
			],
			"min":[
				-0.8660253286361694,
				0.03230930119752884,
				-1.0000003576278687
			],
			"type":"VEC3"
		},
		{
			"bufferView":22,
			"componentType":5126,
			"count":12,
			"type":"VEC3"
		},
		{
			"bufferView":23,
			"componentType":5126,
			"count":3450,
			"max":[
				1.1810717582702637,
				0.24982549250125885,
				0.68083256483078
			],
			"min":[
				-1.1810717582702637,
				-0.14759433269500732,
				-0.7711043953895569
			],
			"type":"VEC3"
		},
		{
			"bufferView":24,
			"componentType":5126,
			"count":3450,
			"type":"VEC3"
		},
		{
			"bufferView":25,
			"componentType":5126,
			"count":3450,
			"type":"VEC2"
		},
		{
			"bufferView":26,
			"componentType":5123,
			"count":16416,
			"type":"SCALAR"
		},
		{
			"bufferView":27,
			"componentType":5126,
			"count":312,
			"max":[
				113.89923095703125,
				39.73077392578125,
				2.521867513656616
			],
			"min":[
				-2.5080525875091553,
				-0.0387721061706543,
				-19.83141326904297
			],
			"type":"VEC3"
		},
		{
			"bufferView":28,
			"componentType":5126,
			"count":312,
			"type":"VEC3"
		},
		{
			"bufferView":29,
			"componentType":5123,
			"count":576,
			"type":"SCALAR"
		},
		{
			"bufferView":30,
			"componentType":5126,
			"count":12,
			"max":[
				112.62594604492188,
				38.76983642578125,
				0.9999996423721313
			],
			"min":[
				-0.8660253286361694,
				0.03230930119752884,
				-18.277359008789062
			],
			"type":"VEC3"
		},
		{
			"bufferView":31,
			"componentType":5126,
			"count":12,
			"type":"VEC3"
		},
		{
			"bufferView":32,
			"componentType":5126,
			"count":312,
			"max":[
				120.41415405273438,
				57.072452545166016,
				2.521867513656616
			],
			"min":[
				-2.5080525875091553,
				-0.0387721061706543,
				-20.568355560302734
			],
			"type":"VEC3"
		},
		{
			"bufferView":33,
			"componentType":5126,
			"count":312,
			"type":"VEC3"
		},
		{
			"bufferView":34,
			"componentType":5123,
			"count":576,
			"type":"SCALAR"
		},
		{
			"bufferView":35,
			"componentType":5126,
			"count":12,
			"max":[
				119.35077667236328,
				55.868202209472656,
				0.9999996423721313
			],
			"min":[
				-0.8660253286361694,
				0.03230930119752884,
				-19.019519805908203
			],
			"type":"VEC3"
		},
		{
			"bufferView":36,
			"componentType":5126,
			"count":12,
			"type":"VEC3"
		},
		{
			"bufferView":37,
			"componentType":5126,
			"count":111323,
			"max":[
				0.058375321328639984,
				2.14615535736084,
				1.3674302101135254
			],
			"min":[
				-2.5821292400360107,
				-1.8958094120025635,
				-0.9425936341285706
			],
			"type":"VEC3"
		},
		{
			"bufferView":38,
			"componentType":5126,
			"count":111323,
			"type":"VEC3"
		},
		{
			"bufferView":39,
			"componentType":5126,
			"count":111323,
			"type":"VEC2"
		},
		{
			"bufferView":40,
			"componentType":5125,
			"count":221184,
			"type":"SCALAR"
		}
	],
	"bufferViews":[
		{
			"buffer":0,
			"byteLength":5220,
			"byteOffset":0,
			"target":34962
		},
		{
			"buffer":0,
			"byteLength":5220,
			"byteOffset":5220,
			"target":34962
		},
		{
			"buffer":0,
			"byteLength":3480,
			"byteOffset":10440,
			"target":34962
		},
		{
			"buffer":0,
			"byteLength":4224,
			"byteOffset":13920,
			"target":34963
		},
		{
			"buffer":0,
			"byteLength":5448,
			"byteOffset":18144,
			"target":34962
		},
		{
			"buffer":0,
			"byteLength":5448,
			"byteOffset":23592,
			"target":34962
		},
		{
			"buffer":0,
			"byteLength":3632,
			"byteOffset":29040,
			"target":34962
		},
		{
			"buffer":0,
			"byteLength":4224,
			"byteOffset":32672,
			"target":34963
		},
		{
			"buffer":0,
			"byteLength":53976,
			"byteOffset":36896,
			"target":34962
		},
		{
			"buffer":0,
			"byteLength":53976,
			"byteOffset":90872,
			"target":34962
		},
		{
			"buffer":0,
			"byteLength":35984,
			"byteOffset":144848,
			"target":34962
		},
		{
			"buffer":0,
			"byteLength":48384,
			"byteOffset":180832,
			"target":34963
		},
		{
			"buffer":0,
			"byteLength":3744,
			"byteOffset":229216,
			"target":34962
		},
		{
			"buffer":0,
			"byteLength":3744,
			"byteOffset":232960,
			"target":34962
		},
		{
			"buffer":0,
			"byteLength":1152,
			"byteOffset":236704,
			"target":34963
		},
		{
			"buffer":0,
			"byteLength":144,
			"byteOffset":237856,
			"target":34962
		},
		{
			"buffer":0,
			"byteLength":144,
			"byteOffset":238000,
			"target":34962
		},
		{
			"buffer":0,
			"byteLength":48,
			"byteOffset":238144,
			"target":34963
		},
		{
			"buffer":0,
			"byteLength":3744,
			"byteOffset":238192,
			"target":34962
		},
		{
			"buffer":0,
			"byteLength":3744,
			"byteOffset":241936,
			"target":34962
		},
		{
			"buffer":0,
			"byteLength":1152,
			"byteOffset":245680,
			"target":34963
		},
		{
			"buffer":0,
			"byteLength":144,
			"byteOffset":246832,
			"target":34962
		},
		{
			"buffer":0,
			"byteLength":144,
			"byteOffset":246976,
			"target":34962
		},
		{
			"buffer":0,
			"byteLength":41400,
			"byteOffset":247120,
			"target":34962
		},
		{
			"buffer":0,
			"byteLength":41400,
			"byteOffset":288520,
			"target":34962
		},
		{
			"buffer":0,
			"byteLength":27600,
			"byteOffset":329920,
			"target":34962
		},
		{
			"buffer":0,
			"byteLength":32832,
			"byteOffset":357520,
			"target":34963
		},
		{
			"buffer":0,
			"byteLength":3744,
			"byteOffset":390352,
			"target":34962
		},
		{
			"buffer":0,
			"byteLength":3744,
			"byteOffset":394096,
			"target":34962
		},
		{
			"buffer":0,
			"byteLength":1152,
			"byteOffset":397840,
			"target":34963
		},
		{
			"buffer":0,
			"byteLength":144,
			"byteOffset":398992,
			"target":34962
		},
		{
			"buffer":0,
			"byteLength":144,
			"byteOffset":399136,
			"target":34962
		},
		{
			"buffer":0,
			"byteLength":3744,
			"byteOffset":399280,
			"target":34962
		},
		{
			"buffer":0,
			"byteLength":3744,
			"byteOffset":403024,
			"target":34962
		},
		{
			"buffer":0,
			"byteLength":1152,
			"byteOffset":406768,
			"target":34963
		},
		{
			"buffer":0,
			"byteLength":144,
			"byteOffset":407920,
			"target":34962
		},
		{
			"buffer":0,
			"byteLength":144,
			"byteOffset":408064,
			"target":34962
		},
		{
			"buffer":0,
			"byteLength":1335876,
			"byteOffset":408208,
			"target":34962
		},
		{
			"buffer":0,
			"byteLength":1335876,
			"byteOffset":1744084,
			"target":34962
		},
		{
			"buffer":0,
			"byteLength":890584,
			"byteOffset":3079960,
			"target":34962
		},
		{
			"buffer":0,
			"byteLength":884736,
			"byteOffset":3970544,
			"target":34963
		}
	],
	"samplers":[
		{
			"magFilter":9729,
			"minFilter":9987
		}
	],
	"buffers":[
		{
			"byteLength":4855280,
			"uri":"2Oak%20Chair.bin"
		}
	]
}
